<svg xmlns="http://www.w3.org/2000/svg" viewBox="0 0 240 240" role="img" aria-label="Probiotics icon">
  <rect width="240" height="240" rx="44" fill="#fff3ea"/>
  <path d="M89 72c-18 0-33 15-33 33s15 33 33 33h9v30c0 11 9 20 20 20h4c11 0 20-9 20-20v-30h9c18 0 33-15 33-33s-15-33-33-33H89z" fill="#f29c8f"/>
  <path d="M120 89v56M92 117h56" stroke="#fffaf4" stroke-width="10" stroke-linecap="round"/>
  <circle cx="104" cy="104" r="4" fill="#fffaf4"/>
  <circle cx="136" cy="104" r="4" fill="#fffaf4"/>
  <path d="M107 126c4 5 8 7 13 7s9-2 13-7" stroke="#fffaf4" stroke-width="6" stroke-linecap="round" fill="none"/>
</svg>
